<svg width="15" height="13" viewBox="0 0 15 13" fill="none" xmlns="http://www.w3.org/2000/svg">
<path d="M2.00033 8.66662C1.64477 8.66662 1.33366 8.53328 1.06699 8.26662C0.800325 7.99995 0.666992 7.68884 0.666992 7.33328L0.666992 5.99995C0.666992 5.92217 0.675325 5.83884 0.691992 5.74995C0.708659 5.66106 0.733658 5.57773 0.766992 5.49995L2.76699 0.799951C2.86699 0.57773 3.03366 0.388841 3.26699 0.233285C3.50033 0.0777302 3.74477 -4.76849e-05 4.00033 -4.76626e-05L9.33366 -4.71963e-05C9.70033 -4.71642e-05 10.0142 0.130508 10.2753 0.391619C10.5364 0.652731 10.667 0.966619 10.667 1.33329L10.667 8.11662C10.667 8.2944 10.6309 8.46384 10.5587 8.62495C10.4864 8.78606 10.3892 8.92773 10.267 9.04995L6.65032 12.65C6.48366 12.8055 6.28644 12.9 6.05866 12.9333C5.83088 12.9666 5.61144 12.9277 5.40032 12.8166C5.18921 12.7055 5.03644 12.55 4.94199 12.35C4.84755 12.15 4.8281 11.9444 4.88366 11.7333L5.63366 8.66662L2.00033 8.66662ZM13.3337 -4.68466e-05C13.7003 -4.68146e-05 14.0142 0.130508 14.2753 0.39162C14.5364 0.652731 14.667 0.966619 14.667 1.33329L14.667 7.33329C14.667 7.69995 14.5364 8.01384 14.2753 8.27495C14.0142 8.53606 13.7003 8.66662 13.3337 8.66662C12.967 8.66662 12.6531 8.53606 12.392 8.27495C12.1309 8.01384 12.0003 7.69995 12.0003 7.33329L12.0003 1.33329C12.0003 0.966619 12.1309 0.652731 12.392 0.391619C12.6531 0.130508 12.967 -4.68787e-05 13.3337 -4.68466e-05Z" fill="#999999"/>
</svg>
