<svg width="10" height="10" viewBox="0 0 10 10" fill="none" xmlns="http://www.w3.org/2000/svg">
<path d="M5.20925 6.14583H4.16758C3.99675 6.14583 3.85508 6.00417 3.85508 5.83333C3.85508 5.6625 3.99675 5.52083 4.16758 5.52083H5.20925C6.30091 5.52083 7.18841 4.63333 7.18841 3.54167C7.18841 2.45 6.30091 1.5625 5.20925 1.5625H3.12591C2.03425 1.5625 1.14675 2.45 1.14675 3.54167C1.14675 4 1.30924 4.44583 1.60091 4.8C1.70924 4.93333 1.69258 5.12916 1.55924 5.24166C1.42591 5.34999 1.23008 5.33334 1.11758 5.2C0.730079 4.73334 0.517578 4.14583 0.517578 3.54167C0.517578 2.10417 1.68424 0.9375 3.12174 0.9375H5.20508C6.64258 0.9375 7.80925 2.10417 7.80925 3.54167C7.80925 4.97917 6.64675 6.14583 5.20925 6.14583Z" fill="#257CFF"/>
<path d="M6.875 9.06234H4.79167C3.35417 9.06234 2.1875 7.89567 2.1875 6.45817C2.1875 5.02067 3.35417 3.854 4.79167 3.854H5.83333C6.00417 3.854 6.14583 3.99567 6.14583 4.1665C6.14583 4.33734 6.00417 4.479 5.83333 4.479H4.79167C3.7 4.479 2.8125 5.3665 2.8125 6.45817C2.8125 7.54984 3.7 8.43734 4.79167 8.43734H6.875C7.96667 8.43734 8.85417 7.54984 8.85417 6.45817C8.85417 5.99984 8.69167 5.55401 8.4 5.19984C8.29167 5.06651 8.30833 4.87068 8.44167 4.75818C8.575 4.64568 8.77083 4.6665 8.88333 4.79983C9.27083 5.2665 9.48333 5.854 9.48333 6.45817C9.47917 7.89567 8.3125 9.06234 6.875 9.06234Z" fill="#257CFF"/>
</svg>
